<svg xmlns="http://www.w3.org/2000/svg" viewBox="0 0 64 64"><defs><style>.cls-1{fill:#272835;}</style></defs><title>11-File Sharing</title><g id="_11-File_Sharing" data-name="11-File Sharing"><path class="cls-1" d="M63,13a1,1,0,0,0-.28-.71l-12-12A1,1,0,0,0,50,0H12A3,3,0,0,0,9,3V31h2V3a1,1,0,0,1,1-1H49v9a3,3,0,0,0,3,3h9V61a1,1,0,0,1-1,1H12a1,1,0,0,1-1-1V47H9V61a3,3,0,0,0,3,3H60a3,3,0,0,0,3-3V13ZM52,12a1,1,0,0,1-1-1V3.41L59.59,12Z"/><rect class="cls-1" x="15" y="16" width="2" height="2"/><rect class="cls-1" x="19" y="16" width="2" height="2"/><path class="cls-1" d="M23,12V6a1,1,0,0,0-1-1H16a1,1,0,0,0-1,1v6a1,1,0,0,0,1,1h6A1,1,0,0,0,23,12Zm-2-1H17V7h4Z"/><rect class="cls-1" x="9" y="33" width="21" height="2"/><rect class="cls-1" x="9" y="43" width="21" height="2"/><path class="cls-1" d="M46.29,43.29l1.41,1.41,5-5a1,1,0,0,0,0-1.41l-5-5-1.41,1.41L49.59,38H4v2H49.59Z"/><path class="cls-1" d="M48.71,58.71l5-5a1,1,0,0,0,0-1.41l-5-5-1.41,1.41L50.59,52H43V45a2,2,0,0,0-2-2H32v2h9v7a2,2,0,0,0,2,2h7.59l-3.29,3.29Z"/><path class="cls-1" d="M42,26v7H32v2H42a2,2,0,0,0,2-2V26h6.59l-3.29,3.29,1.41,1.41,5-5a1,1,0,0,0,0-1.41l-5-5-1.41,1.41L50.59,24H44A2,2,0,0,0,42,26Z"/><path class="cls-1" d="M26,12a1,1,0,0,0,1,1H43a1,1,0,0,0,1-1V9H42v2H28V9H26Z"/><rect class="cls-1" x="26" y="5" width="2" height="2"/><rect class="cls-1" x="30" y="5" width="2" height="2"/><rect class="cls-1" x="34" y="5" width="10" height="2"/><rect class="cls-1" y="38" width="2" height="2"/><rect class="cls-1" x="5" y="33" width="2" height="2"/><rect class="cls-1" x="5" y="43" width="2" height="2"/></g></svg>